<svg xmlns="http://www.w3.org/2000/svg" xmlns:xlink="http://www.w3.org/1999/xlink" viewBox="0,0,256,256" width="48px" height="48px"><g fill="none" fill-rule="nonzero" stroke="none" stroke-width="1" stroke-linecap="butt" stroke-linejoin="miter" stroke-miterlimit="10" stroke-dasharray="" stroke-dashoffset="0" font-family="none" font-weight="none" font-size="none" text-anchor="none" style="mix-blend-mode: normal"><g transform="scale(5.33333,5.33333)"><path d="M42,37c0,2.762 -2.238,5 -5,5h-26c-2.761,0 -5,-2.238 -5,-5v-26c0,-2.762 2.239,-5 5,-5h26c2.762,0 5,2.238 5,5z" fill="#00f56b"></path><path d="M19.775,14.821c-0.454,0.105 -0.775,0.509 -0.775,0.975v13.204c0,0.552 -0.448,1 -1,1h-1c-2.209,0 -4,1.343 -4,3c0,1.657 1.791,3 4,3c2.209,0 4,-1.343 4,-3v-11.666c0,-0.466 0.321,-0.87 0.775,-0.974l7.306,-1.686c0.47,-0.109 0.919,0.248 0.919,0.73v6.596c0,0.552 -0.448,1 -1,1h-1c-2.209,0 -4,1.343 -4,3c0,1.657 1.791,3 4,3c2.209,0 4,-1.343 4,-3v-16.743c0,-0.643 -0.598,-1.119 -1.225,-0.974z" fill="#ffffff"></path></g></g></svg>